<svg width="20" height="15" fill="none" xmlns="http://www.w3.org/2000/svg"><path d="M18.264 2.98a2.275 2.275 0 00-1.587-1.636C15.27 1 9.64 1 9.64 1s-5.629 0-7.036.376a2.274 2.274 0 00-1.587 1.637A23.726 23.726 0 00.64 7.34a23.696 23.696 0 00.377 4.36 2.275 2.275 0 001.587 1.571c1.407.376 7.036.376 7.036.376s5.629 0 7.036-.376a2.275 2.275 0 001.587-1.636c.256-1.417.382-2.855.376-4.295a23.728 23.728 0 00-.376-4.361v0z" stroke="#fff" stroke-linecap="round" stroke-linejoin="round"/><path d="M7.8 10.016l4.704-2.676L7.8 4.665v5.35z" stroke="#fff" stroke-linecap="round" stroke-linejoin="round"/></svg>