<svg width="45" height="59" fill="none" xmlns="http://www.w3.org/2000/svg"><path d="M22.5 5.982c-.297 0-.583-.045-.853-.13V9.92h1.706V5.853c-.27.084-.556.129-.853.129z" fill="#135693"/><path d="M22.5 6.096a2.99 2.99 0 100-5.98 2.99 2.99 0 000 5.98z" fill="#6BC1DD"/><path opacity=".15" d="M22.027 3.106A2.99 2.99 0 0123.759.393a2.99 2.99 0 100 5.426 2.99 2.99 0 01-1.732-2.713z" fill="#440075"/><path d="M41.562 14.588h-1.764v16.269h1.764c.967 0 1.758-.791 1.758-1.758V16.346c0-.967-.791-1.758-1.758-1.758zm-36.361 0h-1.88c-.966 0-1.757.79-1.757 1.757V29.1c0 .966.79 1.757 1.757 1.757h1.88V14.588z" fill="#9EA7AF"/><path d="M6.4 52.142H3.984c-.824 0-1.59-.251-2.226-.68v5.724c0 .644.527 1.172 1.172 1.172H6.4v-6.216zm34.616-.001H38.6v6.216h3.47c.645 0 1.172-.527 1.172-1.172v-5.724a3.967 3.967 0 01-2.226.68z" fill="#C5CCD3"/><path opacity=".15" d="M4.219 57.186V52.14h-.235a3.96 3.96 0 01-2.226-.68v5.725c0 .644.527 1.172 1.172 1.172h2.46a1.175 1.175 0 01-1.171-1.172z" fill="#440075"/><path d="M6.4 43.182H3.984A3.984 3.984 0 000 47.167v1.172c0 2.2 1.784 3.984 3.984 3.984H6.4v-9.14zm34.616 0H38.6v9.14h2.416c2.2 0 3.984-1.784 3.984-3.984v-1.172c0-2.2-1.784-3.984-3.984-3.984z" fill="#E6E9ED"/><path opacity=".15" d="M2.813 48.338v-1.172c0-2.2 1.783-3.984 3.984-3.984H3.984A3.984 3.984 0 000 47.166v1.172c0 2.2 1.784 3.984 3.984 3.984h2.813a3.984 3.984 0 01-3.984-3.984z" fill="#440075"/><path d="M26.39 35.385h-7.78v2.907h7.78v-2.907z" fill="#9EA7AF"/><path opacity=".15" d="M21.445 35.385h-2.834v2.907h2.834v-2.907z" fill="#440075"/><path d="M31.651 41.066v-1.891c0-.556-.455-1.01-1.01-1.01H14.017c-.556 0-1.01.454-1.01 1.01v1.891H31.65z" fill="#C5CCD3"/><path opacity=".15" d="M16.512 41.066v-1.891c0-.556.455-1.01 1.011-1.01h-3.505c-.556 0-1.01.454-1.01 1.01v1.891h3.504z" fill="#440075"/><path d="M36.956 40.868H8.044c-.967 0-1.758.79-1.758 1.757v15.733h32.427V42.625c0-.966-.79-1.757-1.758-1.757z" fill="#9EA7AF"/><path opacity=".15" d="M11.4 40.868H8.044c-.967 0-1.758.79-1.758 1.757v15.733h3.357V42.625c0-.966.79-1.757 1.757-1.757z" fill="#440075"/><path d="M39.912 33.762c0 .966-.79 1.757-1.758 1.757H6.845c-.967 0-1.758-.79-1.758-1.757V11.563c0-.966.791-1.757 1.758-1.757h31.31c.966 0 1.757.79 1.757 1.758v22.198z" fill="#C5CCD3"/><path opacity=".15" d="M8.437 33.762V11.563c0-.966.791-1.757 1.758-1.757h-3.35c-.967 0-1.758.79-1.758 1.758v22.198c0 .966.791 1.757 1.758 1.757h3.35a1.763 1.763 0 01-1.758-1.757z" fill="#440075"/><path d="M35.753 22.695a6.071 6.071 0 01-6.072 6.072H15.32a6.071 6.071 0 110-12.143h14.36a6.071 6.071 0 016.072 6.071z" fill="#135693"/><path opacity=".15" d="M12.656 22.695a6.071 6.071 0 016.072-6.07h-3.41a6.071 6.071 0 100 12.142h3.41a6.071 6.071 0 01-6.072-6.072z" fill="#440075"/><path d="M14.712 25.068a2.365 2.365 0 002.361-2.37 2.365 2.365 0 00-2.36-2.37 2.366 2.366 0 00-2.362 2.37 2.365 2.365 0 002.361 2.37zm15.621-.001a2.366 2.366 0 002.36-2.37 2.366 2.366 0 00-2.36-2.37 2.366 2.366 0 00-2.36 2.37 2.366 2.366 0 002.36 2.37z" fill="#6BC1DD"/><path d="M32.974 58.357V48.14c0-.645-.528-1.172-1.172-1.172H13.198c-.644 0-1.171.527-1.171 1.172v10.216h20.947z" fill="#135693"/><path d="M24.61 58.357v-3.295a.353.353 0 00-.352-.352h-3.516a.353.353 0 00-.351.352v3.295h4.218z" fill="#FFC502"/><path d="M17.578 50.637h-2.695a.853.853 0 110-1.707h2.695a.853.853 0 110 1.707zm-1.172 2.081h-1.523a.853.853 0 110-1.706h1.523a.853.853 0 110 1.706zm1.172 2.084h-2.695a.853.853 0 110-1.706h2.695a.853.853 0 110 1.706zm-1.523 2.082h-1.172a.853.853 0 110-1.706h1.172a.853.853 0 010 1.706z" fill="#C5CCD3"/><path d="M29.73 56.028h-2.08a.894.894 0 110-1.787h2.08a.894.894 0 110 1.787z" fill="#E6E9ED"/><path d="M28.69 52.93a1.877 1.877 0 100-3.753 1.877 1.877 0 000 3.754z" fill="#5DC647"/><path d="M24.662 52.037c0 .198-.163.36-.36.36h-3.603a.361.361 0 01-.36-.36v-1.964c0-.198.162-.36.36-.36h3.602c.198 0 .36.162.36.36v1.964z" fill="#6BC1DD"/></svg>