<svg width="207" height="59" fill="none" xmlns="http://www.w3.org/2000/svg"><path d="M29.5 0A29.502 29.502 0 000 29.5 29.502 29.502 0 0029.5 59V44.25a14.747 14.747 0 01-13.627-9.105 14.747 14.747 0 017.982-19.272A14.747 14.747 0 0129.5 14.75V0z" fill="#0F52FF"/><path d="M29.5 39.333c5.43 0 9.833-4.402 9.833-9.833 0-5.43-4.402-9.833-9.833-9.833-5.43 0-9.833 4.402-9.833 9.833 0 5.43 4.402 9.833 9.833 9.833z" fill="#0F52FF"/><path d="M0 29.5A29.502 29.502 0 0029.5 59 29.503 29.503 0 0059 29.5H44.25a14.747 14.747 0 01-9.105 13.627 14.747 14.747 0 01-19.272-7.982A14.747 14.747 0 0114.75 29.5H0zm39.333 0a9.834 9.834 0 00-19.666 0h19.666z" fill="#5BD0F4"/><path d="M74.407 18.416h-3.664v20.355h3.664V18.416zM76.8 31.56c0 4.711 3.256 7.619 7.56 7.619 4.303 0 7.56-2.908 7.56-7.619 0-4.71-3.257-7.618-7.56-7.618-4.304 0-7.56 2.908-7.56 7.618zm3.663 0c0-2.791 1.629-4.42 3.897-4.42s3.896 1.629 3.896 4.42c0 2.792-1.628 4.42-3.896 4.42-2.269 0-3.897-1.628-3.897-4.42zm24.55-7.211v1.948h-.291c-.872-1.25-2.268-2.355-4.769-2.355-3.43 0-6.513 2.908-6.513 7.386s3.082 7.386 6.513 7.386c2.501 0 3.897-1.134 4.711-2.268h.291v1.395c0 2.792-1.629 4.071-4.013 4.071s-3.606-1.28-4.1-2.937L93.556 40.4c.756 2.181 2.966 4.595 7.444 4.595 4.595 0 7.619-2.414 7.619-7.066v-13.58h-3.606zm-3.955 11.224c-2.268 0-3.954-1.628-3.954-4.245s1.686-4.246 3.954-4.246c2.268 0 3.955 1.629 3.955 4.246 0 2.617-1.687 4.245-3.955 4.245zm9.931-4.013c0 4.711 3.257 7.619 7.561 7.619 4.303 0 7.56-2.908 7.56-7.619 0-4.71-3.257-7.618-7.56-7.618-4.304 0-7.561 2.908-7.561 7.618zm3.664 0c0-2.791 1.629-4.42 3.897-4.42s3.896 1.629 3.896 4.42c0 2.792-1.628 4.42-3.896 4.42s-3.897-1.628-3.897-4.42z" fill="#0F52FF"/><path d="M128.986 20.161c0 1.483 1.135 2.5 2.589 2.5 1.453 0 2.588-1.017 2.588-2.5s-1.135-2.5-2.588-2.5c-1.454 0-2.589 1.017-2.589 2.5zm4.42 4.187h-3.663v14.423h3.663V24.348zm3.265 20.24h3.665V36.91h.29c.814 1.163 2.21 2.268 4.711 2.268 3.431 0 6.514-2.908 6.514-7.619 0-4.71-3.083-7.618-6.514-7.618-2.501 0-3.897 1.105-4.769 2.355h-.291V24.35h-3.606v20.239zm7.56-8.55c-2.267 0-3.954-1.628-3.954-4.478 0-2.85 1.687-4.478 3.954-4.478 2.269 0 3.955 1.629 3.955 4.478 0 2.85-1.686 4.479-3.955 4.479zm9.758-7.648c0 2.85 2.383 3.898 5.407 4.479l.757.145c1.802.35 2.616.786 2.616 1.716 0 .93-.814 1.658-2.499 1.658-1.688 0-3.053-.698-3.433-2.792l-3.373.872c.496 3.024 3.025 4.711 6.806 4.711 3.663 0 6.048-1.715 6.048-4.74 0-3.024-2.443-3.838-5.699-4.478l-.757-.145c-1.512-.291-2.327-.698-2.327-1.658 0-.872.757-1.425 2.153-1.425s2.384.582 2.733 2.152l3.315-1.018c-.698-2.326-2.82-3.925-6.048-3.925-3.432 0-5.699 1.6-5.699 4.449zm28.786 10.381V24.348h-3.663v7.445c0 2.675-1.308 4.245-3.548 4.245-1.978 0-3.082-1.076-3.082-3.257v-8.433h-3.665v8.608c0 3.576 2.241 6.048 5.614 6.048 2.645 0 3.867-1.163 4.448-2.384h.29v2.151h3.606zm3.25-14.422v14.423h3.665v-8.608c0-1.977.931-3.082 2.616-3.082 1.455 0 2.327.814 2.327 2.384v9.306h3.664v-8.608c0-1.977.931-3.082 2.617-3.082 1.454 0 2.326.814 2.326 2.384v9.306h3.665v-9.48c0-3.49-2.153-5.176-4.828-5.176-2.355 0-3.431 1.047-4.129 2.268h-.291c-.669-1.367-1.861-2.268-3.955-2.268-2.093 0-3.228.93-3.779 2.035h-.292V24.35h-3.606z" fill="#5BD0F4"/></svg>