<svg width="213" height="59" fill="none" xmlns="http://www.w3.org/2000/svg"><path fill-rule="evenodd" clip-rule="evenodd" d="M105.236 6.435a5.257 5.257 0 017.434 7.434l-12.516 12.515c-3.593-4.815-3.203-11.664 1.171-16.038l3.911-3.91z" fill="#4F9E91"/><path fill-rule="evenodd" clip-rule="evenodd" d="M123.127 34.672a5.254 5.254 0 010 7.434 5.256 5.256 0 01-7.433 0L103.179 29.59c4.815-3.593 11.664-3.203 16.038 1.171l3.91 3.911z" fill="#EBE1C5"/><path fill-rule="evenodd" clip-rule="evenodd" d="M94.89 52.565a5.256 5.256 0 11-7.433-7.434l12.515-12.516c3.593 4.816 3.203 11.665-1.17 16.039l-3.911 3.91z" fill="#EBCC6E"/><path fill-rule="evenodd" clip-rule="evenodd" d="M76.999 24.327a5.257 5.257 0 017.434-7.434l12.515 12.515c-4.816 3.593-11.665 3.203-16.039-1.17L77 24.326zm25.44 26.705a16.53 16.53 0 004.22-11.912l6.011 6.01.045.045v4.291a5.256 5.256 0 01-10.276 1.566z" fill="#ED834E"/><path fill-rule="evenodd" clip-rule="evenodd" d="M78.531 31.875a16.531 16.531 0 0011.912 4.22l-6.01 6.011-.045.045h-4.291a5.256 5.256 0 01-1.566-10.276z" fill="#4F9E91"/><path fill-rule="evenodd" clip-rule="evenodd" d="M121.595 27.125a16.532 16.532 0 00-11.912-4.22l6.011-6.011.045-.045h4.291a5.257 5.257 0 011.565 10.276z" fill="#EBCC6E"/><path fill-rule="evenodd" clip-rule="evenodd" d="M97.688 7.968a16.532 16.532 0 00-4.22 11.912l-6.011-6.01-.045-.046v-4.29a5.257 5.257 0 0110.276-1.566z" fill="#EBE1C5"/><path fill-rule="evenodd" clip-rule="evenodd" d="M92.668 0a9.533 9.533 0 00-9.533 9.533v1.855a9.533 9.533 0 00-9.16 15.964l1.31 1.31a9.533 9.533 0 004.811 17.765h1.855a9.533 9.533 0 0015.964 9.16l3.91-3.909a16.533 16.533 0 004.834-12.558l6.011 6.01a9.533 9.533 0 0013.482 0 9.532 9.532 0 000-13.482l-1.31-1.31a9.53 9.53 0 004.721-8.233c0-5.265-4.269-9.533-9.533-9.533h-1.854a9.533 9.533 0 00-15.964-9.16l-3.91 3.91a16.532 16.532 0 00-4.834 12.558l-6.011-6.01-.045-.045V9.533a5.257 5.257 0 0110.276-1.565c.197-.22.402-.435.613-.646l2.6-2.6A9.53 9.53 0 0092.668 0zm23.071 16.849l-.045.044-6.011 6.011a16.53 16.53 0 0111.912 4.22 5.256 5.256 0 00-1.565-10.276h-4.291zM84.388 42.15l.045-.045 6.01-6.01a16.532 16.532 0 01-11.911-4.22 5.257 5.257 0 001.565 10.276h4.29zm-6.02-10.425zM107.458 59a9.53 9.53 0 01-8.232-4.722l2.599-2.6c.212-.211.416-.427.614-.646a5.258 5.258 0 0010.276-1.565v-4.292a9.486 9.486 0 004.277 2.437v1.855c0 5.265-4.269 9.533-9.534 9.533zm5.212-52.565a5.257 5.257 0 00-7.434 0l-3.911 3.91c-4.374 4.375-4.764 11.224-1.171 16.04l12.516-12.516a5.256 5.256 0 000-7.434zm10.457 35.671a5.255 5.255 0 000-7.434l-3.91-3.91c-4.374-4.374-11.223-4.765-16.039-1.171l12.516 12.515a5.256 5.256 0 007.433 0zM94.891 52.564a5.257 5.257 0 01-7.434-7.434l12.515-12.515c3.594 4.816 3.203 11.665-1.17 16.039l-3.911 3.91zm-17.892-35.67a5.257 5.257 0 000 7.434l3.91 3.91c4.374 4.374 11.223 4.764 16.04 1.171L84.432 16.894a5.257 5.257 0 00-7.434 0z" fill="#3D3A2C"/><path d="M0 19.278h4.675v14.528h8.03v3.935H0V19.278zm21.194 18.86c-1.567 0-2.941-.282-4.12-.846-1.18-.58-2.096-1.373-2.748-2.377-.634-1.021-.95-2.192-.95-3.513 0-1.32.316-2.483.95-3.486.652-1.022 1.567-1.814 2.747-2.378 1.18-.58 2.553-.871 4.12-.871 1.568 0 2.941.29 4.121.871 1.18.564 2.087 1.356 2.72 2.378.652 1.003.978 2.165.978 3.486 0 1.32-.326 2.492-.977 3.513-.634 1.004-1.54 1.796-2.72 2.377-1.18.564-2.554.846-4.121.846zm0-3.62c.933 0 1.673-.272 2.218-.818.564-.563.846-1.33.846-2.298s-.282-1.726-.846-2.271c-.545-.564-1.285-.846-2.218-.846-.934 0-1.682.282-2.245.846-.546.545-.82 1.303-.82 2.271 0 .969.274 1.735.82 2.298.563.546 1.311.819 2.245.819zm16.55 9.299c-.845 0-1.7-.08-2.562-.238-.845-.159-1.576-.37-2.192-.634v-3.223c1.39.6 2.976.898 4.754.898 1.286 0 2.21-.264 2.774-.792.58-.528.871-1.303.871-2.324v-.766c-.51.44-1.144.783-1.902 1.03-.74.246-1.532.37-2.377.37-1.338 0-2.518-.282-3.54-.846a6.12 6.12 0 01-2.403-2.377c-.563-1.021-.845-2.192-.845-3.513 0-1.338.282-2.518.845-3.54a5.768 5.768 0 012.377-2.35c1.022-.564 2.193-.845 3.514-.845 1.813 0 3.31.554 4.49 1.664v-1.268h4.49V36.87c0 2.2-.678 3.91-2.034 5.124-1.338 1.215-3.425 1.823-6.26 1.823zm.529-9.272c.721 0 1.364-.184 1.928-.554.563-.37.96-.863 1.188-1.48v-2.218a2.975 2.975 0 00-1.215-1.453 3.39 3.39 0 00-1.901-.555c-.951 0-1.717.282-2.299.846-.58.545-.871 1.294-.871 2.245 0 .968.29 1.743.871 2.324.582.564 1.348.845 2.299.845zm16.763 3.593c-1.567 0-2.94-.282-4.12-.846-1.18-.58-2.096-1.373-2.747-2.377-.634-1.021-.951-2.192-.951-3.513 0-1.32.317-2.483.95-3.486.652-1.022 1.568-1.814 2.748-2.378 1.18-.58 2.553-.871 4.12-.871 1.567 0 2.94.29 4.12.871 1.18.564 2.087 1.356 2.721 2.378.652 1.003.978 2.165.978 3.486 0 1.32-.326 2.492-.978 3.513-.634 1.004-1.54 1.796-2.72 2.377-1.18.564-2.554.846-4.12.846zm0-3.62c.933 0 1.673-.272 2.219-.818.563-.563.845-1.33.845-2.298s-.282-1.726-.845-2.271c-.546-.564-1.286-.846-2.219-.846-.933 0-1.682.282-2.245.846-.546.545-.819 1.303-.819 2.271 0 .969.273 1.735.819 2.298.563.546 1.312.819 2.245.819zm82.382-15.24h4.676v18.463h-4.676V19.278zm7.043 5.785h4.491v1.268c1.179-1.11 2.675-1.664 4.489-1.664 1.321 0 2.492.281 3.513.845a5.761 5.761 0 012.377 2.35c.564 1.004.846 2.175.846 3.514 0 1.32-.282 2.5-.846 3.54a5.934 5.934 0 01-2.377 2.376c-1.003.564-2.174.846-3.513.846a7.471 7.471 0 01-2.429-.397c-.757-.246-1.392-.59-1.902-1.03v6.815h-4.649V25.063zm7.766 9.456c.951 0 1.717-.282 2.297-.845.581-.564.873-1.33.873-2.298 0-.969-.292-1.726-.873-2.272-.58-.563-1.346-.845-2.297-.845-.705 0-1.339.185-1.903.555a2.978 2.978 0 00-1.214 1.452v2.245c.247.617.651 1.11 1.214 1.48a3.518 3.518 0 001.903.528zm14.88 3.619c-1.02 0-2.085-.106-3.195-.317-1.109-.194-1.991-.476-2.642-.846v-3.407c.722.423 1.585.775 2.589 1.057 1.021.264 1.954.396 2.8.396.615 0 1.065-.044 1.346-.132.283-.088.423-.264.423-.529a.567.567 0 00-.29-.501c-.176-.141-.511-.282-1.004-.423a34.719 34.719 0 00-1.664-.502c-1.074-.317-1.919-.643-2.536-.977-.616-.335-1.073-.758-1.374-1.268-.299-.51-.448-1.153-.448-1.928 0-1.374.537-2.395 1.611-3.064 1.092-.687 2.58-1.03 4.464-1.03a15.2 15.2 0 012.879.29c1.022.194 1.787.45 2.298.766v3.355c-.528-.352-1.233-.643-2.113-.872-.863-.229-1.673-.343-2.431-.343-.597 0-1.065.061-1.399.184-.334.106-.501.3-.501.582 0 .264.167.466.501.607.334.141.933.317 1.796.528.563.141.801.203.713.185 1.127.3 1.998.634 2.615 1.004.617.37 1.047.81 1.294 1.32.265.494.397 1.128.397 1.903 0 1.215-.528 2.183-1.585 2.905-1.039.704-2.554 1.057-4.544 1.057zm13.069 0c-1.742 0-3.054-.484-3.934-1.453-.863-.968-1.295-2.245-1.295-3.83v-7.792h4.649v7.264c0 1.461.66 2.192 1.981 2.192a3.23 3.23 0 001.638-.423c.492-.281.897-.695 1.214-1.24v-7.793h4.649v12.679h-4.489v-1.374a5.3 5.3 0 01-1.982 1.32 6.67 6.67 0 01-2.431.45zm11.282-13.075h4.306v1.373a5.48 5.48 0 011.823-1.294 5.164 5.164 0 012.192-.475c.951 0 1.708.14 2.272.422a3.346 3.346 0 011.399 1.268 5.598 5.598 0 011.929-1.241 6.21 6.21 0 012.298-.45c1.673 0 2.862.432 3.566 1.295.704.845 1.056 2.069 1.056 3.671v8.11h-4.438v-7.45c0-.704-.131-1.214-.396-1.531-.263-.317-.704-.476-1.319-.476-.793 0-1.437.282-1.929.846.017.299.026.757.026 1.373v7.237h-4.437v-7.633c0-.652-.114-1.118-.344-1.4-.229-.282-.634-.423-1.214-.423-.899 0-1.673.502-2.325 1.506v7.95h-4.465V25.063z" fill="#fff"/></svg>