<svg width="218" height="59" fill="none" xmlns="http://www.w3.org/2000/svg"><path d="M17.957 56.302l-5.96-10.321 8.746-15.107 5.557 9.627 32.807-.018-9.31 15.962-31.84-.143z" fill="#FFAD64"/><path d="M64.965 30.235l-5.96 10.321-17.454-.02 5.558-9.627L30.69 2.507l18.478.081 15.797 27.647z" fill="#ADD4D3"/><path d="M18.875 2.451h11.918l8.71 15.127H28.387L12 45.998 2.831 29.955 18.875 2.451z" fill="#FB8351"/><path fill-rule="evenodd" clip-rule="evenodd" d="M32.246.062L32.211 0H17.467L0 29.943l11.99 20.98.015-.026 4.532 7.85 34.665.156L63.376 38.03h-.081l4.497-7.79L50.594.142 32.246.062zM43.652 20.03h.092L35.077 4.977l12.664.056 14.397 25.195-4.507 7.805-11.808.006 4.117-7.13-6.288-10.879zM29.244 4.903l5.91 10.224H26.97L12.963 39.42l-.956 1.65-6.345-11.102L20.283 4.903h8.96zm-5.682 25.951l6.242-10.824h8.184l6.29 10.88-4.119 7.132-12.444.007-4.153-7.195zm-8.728 15.137l2.375-4.118 3.53-6.1 4.146 7.18 12.442-.006-.02.035 17.493.02-6.407 10.985-29.017-.13-4.542-7.866z" fill="#333237"/><path d="M82.071 50.373V38.896H77.83v-1.289h10.11v1.289h-4.242v11.477H82.07zm10.385.199c-1.679 0-2.934-.403-3.767-1.209-.832-.806-1.248-2.048-1.248-3.727 0-1.506.356-2.689 1.07-3.548.727-.872 1.87-1.309 3.43-1.309.924 0 1.684.172 2.279.516.608.33 1.057.793 1.348 1.388.304.581.456 1.242.456 1.982v1.764h-6.958c.053.714.205 1.275.456 1.685.264.41.654.707 1.17.892.528.172 1.222.258 2.08.258.965 0 1.851-.165 2.657-.496v1.269a6.6 6.6 0 01-1.388.397 8.744 8.744 0 01-1.585.138zm-3.39-5.312h5.51v-.773c0-.767-.204-1.355-.614-1.765-.396-.423-1.057-.634-1.982-.634-1.123 0-1.89.264-2.3.793-.41.528-.614 1.321-.614 2.379zm13.781 5.312c-1.639 0-2.855-.423-3.648-1.269-.793-.858-1.19-2.068-1.19-3.627 0-1.652.45-2.881 1.349-3.687.898-.806 2.108-1.21 3.627-1.21.622 0 1.137.047 1.547.14.409.079.806.21 1.189.396v1.288c-.714-.343-1.526-.515-2.438-.515-1.163 0-2.062.277-2.696.833-.635.541-.952 1.46-.952 2.755 0 1.242.278 2.154.833 2.735.555.569 1.473.853 2.755.853.912 0 1.751-.172 2.518-.516v1.309c-.41.172-.853.297-1.328.377a8.031 8.031 0 01-1.566.138zm4.716-.199v-13.36h1.625v4.975a5.555 5.555 0 011.527-.872c.595-.225 1.282-.337 2.061-.337 1.137 0 1.989.278 2.558.833.568.555.852 1.427.852 2.616v6.145h-1.625v-6.085c0-.82-.185-1.388-.555-1.705-.357-.33-.952-.496-1.785-.496-.528 0-1.077.12-1.645.357a4.13 4.13 0 00-1.388.892v7.037h-1.625z" fill="#fff"/><path d="M122.669 50.572c-1.322 0-2.379-.29-3.172-.872-.793-.582-1.189-1.361-1.189-2.34 0-.898.277-1.671.832-2.319.555-.647 1.315-1.222 2.28-1.724a17.006 17.006 0 01-1.308-1.447c-.357-.45-.536-.991-.536-1.626 0-.793.271-1.46.813-2.002.555-.555 1.335-.832 2.339-.832.978 0 1.738.257 2.28.773.541.515.813 1.202.813 2.061 0 .714-.192 1.315-.576 1.804-.383.49-.931.985-1.645 1.487l3.291 3.35c.224-.49.337-1.11.337-1.863v-.278h1.289v.278c0 .515-.06 1.017-.179 1.506a4.244 4.244 0 01-.515 1.269l1.784 1.804-.992.892-1.586-1.566c-.462.568-1.063.984-1.803 1.249-.74.264-1.593.396-2.557.396zm-.08-7.83c.622-.383 1.091-.747 1.408-1.09.317-.357.476-.806.476-1.348 0-.503-.139-.899-.417-1.19-.264-.304-.707-.456-1.328-.456-.634 0-1.097.159-1.387.476-.278.317-.417.707-.417 1.17 0 .423.146.812.436 1.17.304.356.714.779 1.229 1.268zm.08 6.66c.766 0 1.42-.112 1.962-.337a3.698 3.698 0 001.408-1.05l-3.628-3.707c-.859.396-1.5.826-1.923 1.288-.409.45-.614 1.025-.614 1.725 0 .687.264 1.21.793 1.566.528.344 1.196.515 2.002.515zM78.47 28.341V10.665h5.16v13.724h7.96v3.952H78.47zm21.42.275c-2.598 0-4.52-.577-5.763-1.73-1.226-1.152-1.84-2.836-1.84-5.05 0-2.196.623-3.87 1.867-5.023 1.244-1.17 3.157-1.756 5.737-1.756 2.598 0 4.519.585 5.763 1.756 1.263 1.153 1.894 2.827 1.894 5.023 0 2.214-.622 3.898-1.866 5.05-1.244 1.153-3.175 1.73-5.791 1.73zm0-3.76c.842 0 1.446-.239 1.812-.714.384-.476.576-1.245.576-2.306 0-1.043-.192-1.802-.576-2.278-.366-.494-.97-.741-1.811-.741-.824 0-1.419.247-1.785.741-.365.476-.548 1.235-.548 2.278 0 1.061.182 1.83.548 2.306.366.476.961.713 1.785.713zm15.301 8.316a28.63 28.63 0 01-2.086-.082 19.194 19.194 0 01-2.141-.22 11.045 11.045 0 01-1.647-.384v-3.294a11.59 11.59 0 001.702.412c.658.11 1.326.192 2.003.247a23.17 23.17 0 001.867.082c.97 0 1.729-.055 2.278-.165.567-.091.851-.265.851-.521 0-.22-.092-.366-.275-.44-.183-.054-.53-.082-1.043-.082h-3.431c-1.335 0-2.369-.21-3.101-.63-.714-.44-1.071-1.09-1.071-1.95 0-1.207.668-2.049 2.004-2.525-.75-.384-1.299-.869-1.647-1.454-.348-.586-.521-1.327-.521-2.224 0-1.683.567-2.918 1.701-3.705 1.153-.787 2.809-1.18 4.968-1.18.458 0 .97.036 1.537.11.568.054.979.11 1.235.164h5.106l-.11 3.13h-1.729c.329.42.494.932.494 1.536 0 1.336-.394 2.397-1.18 3.184-.769.769-1.986 1.153-3.651 1.153-.238 0-.494-.01-.769-.028a14.11 14.11 0 00-.768-.082 4.02 4.02 0 00-1.043.22c-.293.11-.439.292-.439.549 0 .183.082.31.247.384.165.055.393.082.686.082h2.992c1.336 0 2.388.311 3.156.933.769.623 1.153 1.537 1.153 2.745 0 1.281-.595 2.27-1.784 2.964-1.189.714-3.037 1.07-5.544 1.07zm.439-11.665c.805 0 1.363-.138 1.674-.412.311-.274.467-.732.467-1.372 0-.64-.156-1.107-.467-1.4-.311-.293-.869-.44-1.674-.44-.75 0-1.299.147-1.647.44-.329.274-.494.74-.494 1.4 0 .622.155 1.08.466 1.372.33.274.888.412 1.675.412zm16.265 7.109c-2.599 0-4.52-.577-5.765-1.73-1.226-1.152-1.839-2.836-1.839-5.05 0-2.196.623-3.87 1.867-5.023 1.244-1.17 3.157-1.756 5.737-1.756 2.598 0 4.519.585 5.763 1.756 1.264 1.153 1.894 2.827 1.894 5.023 0 2.214-.622 3.898-1.866 5.05-1.245 1.153-3.175 1.73-5.791 1.73zm0-3.76c.841 0 1.445-.239 1.811-.714.384-.476.577-1.245.577-2.306 0-1.043-.193-1.802-.577-2.278-.366-.494-.97-.741-1.811-.741-.823 0-1.419.247-1.785.741-.366.476-.548 1.235-.548 2.278 0 1.061.182 1.83.548 2.306.366.476.962.713 1.785.713z" fill="#FB8351"/><path d="M141.82 13.601V9.87h5.572v3.73h-5.572zm.411 14.74v-9.25h-1.892l.438-3.76h6.615v13.01h-5.161zm7.636 5.929V15.33h4.475l.246 1.043a5.951 5.951 0 011.729-.96c.641-.239 1.381-.357 2.224-.357 1.939 0 3.431.494 4.474 1.482 1.06.97 1.591 2.626 1.591 4.968 0 2.324-.558 4.09-1.674 5.297-1.116 1.208-2.653 1.812-4.611 1.812-1.299 0-2.397-.247-3.294-.741v6.395h-5.16zm7.136-9.415c.751 0 1.328-.265 1.73-.796.403-.53.604-1.354.604-2.47 0-1.08-.193-1.811-.577-2.196-.366-.384-.933-.576-1.702-.576-.768 0-1.445.256-2.031.768v4.612c.294.22.586.384.879.494.292.11.658.164 1.097.164zm14.48 3.761c-1.116 0-2.168-.083-3.156-.247-.97-.147-1.738-.339-2.306-.577v-3.705c.64.293 1.4.521 2.278.686.897.165 1.657.247 2.277.247.66 0 1.154-.018 1.483-.055.349-.037.521-.192.521-.466 0-.311-.301-.55-.905-.714a40.272 40.272 0 01-2.277-.714c-1.191-.42-2.079-.915-2.664-1.482s-.877-1.39-.877-2.47c0-1.3.512-2.297 1.537-2.992 1.024-.713 2.634-1.07 4.829-1.07.843 0 1.712.064 2.608.192.896.128 1.601.274 2.114.439v3.623a7.757 7.757 0 00-1.811-.521 10.46 10.46 0 00-1.757-.165c-.585 0-1.108.027-1.565.082-.458.055-.686.21-.686.467 0 .292.257.503.769.631.53.128 1.235.33 2.113.604.989.293 1.756.613 2.306.96.567.348.961.769 1.18 1.263.237.494.357 1.107.357 1.84 0 1.317-.541 2.341-1.62 3.073-1.062.714-2.644 1.07-4.748 1.07zm13.018-.001c-1.519 0-2.708-.43-3.568-1.29-.859-.86-1.289-2.122-1.289-3.788v-8.206h5.159v7.795c0 1.134.577 1.701 1.729 1.701a2.96 2.96 0 001.236-.274c.402-.183.722-.412.96-.686V15.33h5.16v13.01h-4.83l-.137-.989c-.512.366-1.145.668-1.894.906-.732.238-1.574.357-2.526.357zm11.845-.274v-13.01h4.775l.137 1.043a7.964 7.964 0 011.894-.933 6.863 6.863 0 012.334-.384c.84 0 1.5.118 1.975.357a2.86 2.86 0 011.153 1.042 7.747 7.747 0 011.977-1.015c.749-.256 1.628-.384 2.635-.384 1.518 0 2.634.402 3.348 1.207.714.787 1.07 1.995 1.07 3.623v8.454h-5.078v-7.85c0-.585-.118-.997-.356-1.235-.237-.256-.631-.384-1.181-.384-.713 0-1.299.256-1.755.768.035.238.054.467.054.686v8.015h-4.776V20.41c0-.53-.091-.915-.274-1.153-.184-.256-.531-.384-1.043-.384-.348 0-.687.091-1.016.274-.33.183-.623.403-.878.659v8.536h-4.995zm-58.335 22.395c-1.375 0-2.518-.258-3.43-.773a5.015 5.015 0 01-2.021-2.2c-.45-.952-.674-2.062-.674-3.33 0-1.388.212-2.598.634-3.628.423-1.031 1.083-1.824 1.983-2.38.899-.567 2.06-.852 3.488-.852.74 0 1.407.053 2.002.159a10.75 10.75 0 011.706.436v1.427a9.595 9.595 0 00-1.686-.456 9.587 9.587 0 00-1.882-.178c-1.151 0-2.063.218-2.736.654-.674.436-1.157 1.064-1.448 1.883-.291.82-.436 1.798-.436 2.934 0 1.573.371 2.789 1.11 3.648.754.846 1.937 1.268 3.548 1.268.595 0 1.196-.046 1.804-.139a8.484 8.484 0 001.726-.436v1.448c-.517.158-1.078.284-1.686.376a13.04 13.04 0 01-2.002.139zm10.362-.001c-1.639 0-2.835-.416-3.588-1.248-.74-.846-1.109-2.062-1.109-3.648 0-1.573.377-2.782 1.129-3.628.753-.845 1.944-1.268 3.568-1.268 1.626 0 2.816.423 3.568 1.268.754.846 1.13 2.055 1.13 3.628 0 1.586-.369 2.802-1.11 3.648-.739.832-1.935 1.248-3.588 1.248zm0-1.387c1.123 0 1.917-.278 2.379-.833.463-.568.694-1.46.694-2.676 0-1.216-.237-2.101-.714-2.656-.462-.569-1.249-.853-2.359-.853-1.109 0-1.903.285-2.378.853-.462.555-.694 1.44-.694 2.656 0 1.216.232 2.108.694 2.676.463.555 1.255.833 2.378.833zm6.685 1.19V49.17h1.467v1.368h-1.467z" fill="#fff"/></svg>